# xmcd
#
# Track frame offsets:
#	150
#	10950
#	23088
#	35972
#	47524
#	58081
#	69847
#	83801
#	94534
#	108872
#	121255
#	132495
#	145191
#	160013
#	168546
#	178225
#	189536
#	199517
#	209417
#	219903
#
# Disc length: 3071 seconds
#
# Revision: 0
# Processed by: cddbd v1.5.2PL0 Copyright (c) Steve Scherf et al.
# Submitted via: audiograbber 1.83.01
#
DISCID=150bfd14
DTITLE=Wanda Jackson - The Famous Wanda Jackson CD8
DYEAR=2012
DGENRE=Country
TTITLE0=I've Got The Tiger By The Tail 
TTITLE1=I've Gotta Sing
TTITLE2=Jackson (& Mike Post)
TTITLE3=Jalhouse heart
TTITLE4=Jambalaya
TTITLE5=Jealous Heart
TTITLE6=Jubal
TTITLE7=Just Between Me And You
TTITLE8=Just Call Me Lonesome
TTITLE9=Just For You
TTITLE10=Just Queen For A Day
TTITLE11=Kansas City
TTITLE12=Komm Heim Mein Wandersmann
TTITLE13=Leave My baby Alone
TTITLE14=Less Of me
TTITLE15=Let Me Explain
TTITLE16=Let Me Go, Lover
TTITLE17=Let Me Talk To You
TTITLE18=Let My Love Walk In
TTITLE19=Let Trouble Be You
EXTD=
EXTT0=
EXTT1=
EXTT2=
EXTT3=
EXTT4=
EXTT5=
EXTT6=
EXTT7=
EXTT8=
EXTT9=
EXTT10=
EXTT11=
EXTT12=
EXTT13=
EXTT14=
EXTT15=
EXTT16=
EXTT17=
EXTT18=
EXTT19=
PLAYORDER=
